<svg width="285" height="279" viewBox="0 0 285 279" fill="none" xmlns="http://www.w3.org/2000/svg">
<g clip-path="url(#clip0_7_2494)">
<rect x="0.662109" y="0.803711" width="284" height="278" rx="2" fill="#F2F5F7"/>
<rect x="1.16211" y="1.30371" width="283" height="277" rx="1.5" stroke="#C2D1D9"/>
</g>
<g clip-path="url(#clip1_7_2494)">
<path d="M12.6621 11.8037L272.337 267.278" stroke="#C2D1D9"/>
<path d="M272.338 11.8037L12.6626 267.278" stroke="#C2D1D9"/>
</g>
<rect x="108.662" y="111.804" width="68" height="56" rx="4" fill="#F2F5F7"/>
<path fill-rule="evenodd" clip-rule="evenodd" d="M172.662 111.804H112.662C110.453 111.804 108.662 113.595 108.662 115.804V163.804C108.662 166.013 110.453 167.804 112.662 167.804H172.662C174.871 167.804 176.662 166.013 176.662 163.804V115.804C176.662 113.595 174.871 111.804 172.662 111.804ZM112.662 163.804V115.804H172.662V163.804H112.662Z" fill="#C2D1D9"/>
<path fill-rule="evenodd" clip-rule="evenodd" d="M119.662 128.304C119.662 132.446 123.02 135.804 127.162 135.804C131.304 135.804 134.662 132.446 134.662 128.304C134.662 124.162 131.304 120.804 127.162 120.804C123.02 120.804 119.662 124.162 119.662 128.304ZM130.662 128.304C130.662 130.237 129.095 131.804 127.162 131.804C125.229 131.804 123.662 130.237 123.662 128.304C123.662 126.371 125.229 124.804 127.162 124.804C129.095 124.804 130.662 126.371 130.662 128.304Z" fill="#C2D1D9"/>
<path d="M123.07 159.224C122.286 160.002 121.019 159.996 120.242 159.212C119.464 158.427 119.47 157.161 120.254 156.383L136.703 140.076L145.975 148.14C146.808 148.865 146.896 150.128 146.171 150.961C145.446 151.795 144.183 151.883 143.35 151.158L136.881 145.532L123.07 159.224Z" fill="#C2D1D9"/>
<path d="M138.076 159.218C137.295 159.999 136.029 159.999 135.248 159.218C134.467 158.437 134.467 157.171 135.248 156.389L161.571 130.064L175.981 142.709C176.811 143.437 176.894 144.701 176.165 145.531C175.437 146.362 174.173 146.444 173.343 145.716L161.749 135.543L138.076 159.218Z" fill="#C2D1D9"/>
<defs>
<clipPath id="clip0_7_2494">
<rect width="284" height="278" fill="white" transform="translate(0.662109 0.803711)"/>
</clipPath>
<clipPath id="clip1_7_2494">
<rect width="260" height="256" fill="white" transform="translate(12.6621 11.8037)"/>
</clipPath>
</defs>
</svg>
